<svg width="51" height="44" viewBox="0 0 51 44" fill="none" xmlns="http://www.w3.org/2000/svg">
<path d="M20.4165 25.5444C20.4165 23.9216 20.9088 22.3369 21.8284 20.9997C22.7479 19.6626 24.0514 18.6358 25.5668 18.055C27.0821 17.4742 28.738 17.3667 30.3157 17.7467C31.8934 18.1268 33.3187 18.9765 34.4034 20.1836C34.4798 20.2652 34.5721 20.3304 34.6747 20.3749C34.7773 20.4194 34.888 20.4424 34.9998 20.4424C35.1117 20.4424 35.2223 20.4194 35.3249 20.3749C35.4275 20.3304 35.5199 20.2652 35.5963 20.1836C36.6776 18.9686 38.1032 18.1118 39.6835 17.7271C41.2637 17.3425 42.9237 17.4482 44.4424 18.0303C45.961 18.6124 47.2664 19.6432 48.1848 20.9855C49.1032 22.3278 49.5909 23.918 49.5832 25.5444C49.5832 28.884 47.3957 31.3777 45.2082 33.5652L37.199 41.3133C36.9273 41.6254 36.5922 41.8761 36.2162 42.0488C35.8401 42.2214 35.4316 42.3121 35.0178 42.3147C34.604 42.3173 34.1943 42.2319 33.8161 42.064C33.4379 41.8961 33.0997 41.6497 32.824 41.3411L24.7915 33.5652C22.604 31.3777 20.4165 28.8986 20.4165 25.5444Z" stroke="#800020" stroke-width="2" stroke-linecap="round" stroke-linejoin="round"/>
</svg>
